<?xml version="1.0" encoding="UTF-8" standalone="no"?>
<svg width="47px" height="67px" viewBox="0 0 47 67" version="1.1" xmlns="http://www.w3.org/2000/svg" xmlns:xlink="http://www.w3.org/1999/xlink">
    <!-- Generator: Sketch 39.1 (31720) - http://www.bohemiancoding.com/sketch -->
    <title>Shape Copy 2</title>
    <desc>Created with Sketch.</desc>
    <defs></defs>
    <g id="Page-1" stroke="none" stroke-width="1" fill="none" fill-rule="evenodd">
        <g id="Desktop-HD" transform="translate(-249.000000, -3830.000000)" fill="#005195">
            <g id="Shape-Copy-2" transform="translate(250.000000, 3831.000000)">
                <path d="M18.0521715,8.84818758 L11.8917731,8.84818758 L11.8917731,14.7881738 L32.6190952,14.7881738 L32.6190952,8.84818758 L26.458698,8.84818758 C26.6192478,8.3905003 26.7065217,7.8985798 26.7065217,7.38636364 C26.7065217,4.93873805 24.7137022,2.95454545 22.2554348,2.95454545 C19.7971674,2.95454545 17.8043478,4.93873805 17.8043478,7.38636364 C17.8043478,7.8985798 17.8916218,8.3905003 18.0521715,8.84818758 L18.0521715,8.84818758 Z M14.985353,5.90909091 L11.8917731,5.90909091 C10.2406631,5.90909091 8.90217391,7.24137047 8.90217391,8.84818755 L8.90217391,8.86363636 L2.98959917,8.86363636 C1.33848915,8.86363636 0,10.1959159 0,11.802733 L0,62.0609033 C0,63.6841217 1.33212193,65 2.98959917,65 L41.5212703,65 C43.1723805,65 44.5108696,63.6677204 44.5108696,62.0609033 L44.5108696,11.802733 C44.5108696,10.1795147 43.1787477,8.86363636 41.5212703,8.86363636 L35.6086957,8.86363636 L35.6086957,8.84818755 C35.6086957,7.22496929 34.2765738,5.90909091 32.6190964,5.90909091 L29.5255165,5.90909091 C28.8381645,2.53759952 25.8444322,0 22.2554348,0 C18.6664374,0 15.6727051,2.53759952 14.985353,5.90909091 L14.985353,5.90909091 L14.985353,5.90909091 Z M35.6086957,11.802733 L41.5212691,11.802733 L41.5212691,62.0609009 L2.98959914,62.0609009 L2.98959914,11.802733 L8.90217391,11.802733 L8.90217391,14.7881761 C8.90217391,16.4113944 10.2342958,17.7272727 11.8917731,17.7272727 L32.6190964,17.7272727 C34.2702066,17.7272727 35.6086957,16.3949932 35.6086957,14.7881761 L35.6086957,11.802733 L35.6086957,11.802733 Z" stroke="#005195" stroke-width="1"></path>
                <polygon id="Path-2-Copy-3" points="28.8028454 32 19.8542938 40.8380757 15.6468341 36.68256 12 40.2836879 19.8120738 48 19.8542938 47.9583013 19.8958216 48 32.4489874 35.6011279"></polygon>
            </g>
        </g>
    </g>
</svg>