<?xml version="1.0" encoding="UTF-8" standalone="no"?>
<svg width="42px" height="60px" viewBox="0 0 42 60" version="1.1" xmlns="http://www.w3.org/2000/svg" xmlns:xlink="http://www.w3.org/1999/xlink">
    <!-- Generator: Sketch 39.1 (31720) - http://www.bohemiancoding.com/sketch -->
    <title>Path 2 Copy 3</title>
    <desc>Created with Sketch.</desc>
    <defs></defs>
    <g id="Page-1" stroke="none" stroke-width="1" fill="none" fill-rule="evenodd">
        <g id="Path-2-Copy-3" transform="translate(1.000000, 1.000000)" fill="#FFFFFF">
            <polygon points="25.8028454 26 16.8542938 34.8380757 12.6468341 30.68256 9 34.2836879 16.8120738 42 16.8542938 41.9583013 16.8958216 42 29.4489874 29.6011279"></polygon>
            <path d="M16.2227085,7.95148481 L10.6866239,7.95148481 L10.6866239,13.2894944 L29.3133749,13.2894944 L29.3133749,7.95148481 L23.7772915,7.95148481 C23.9215707,7.54018098 24,7.09811322 24,6.63780664 C24,4.43823102 22.2091389,2.65512266 20,2.65512266 C17.790861,2.65512266 16,4.43823102 16,6.63780664 C16,7.09811322 16.0784293,7.54018098 16.2227085,7.95148481 L16.2227085,7.95148481 Z M13.4666908,5.31024531 L10.6866239,5.31024531 C9.20284251,5.31024531 8,6.50750753 8,7.95148478 L8,7.96536797 L2.68662392,7.96536797 C1.20284251,7.96536797 0,9.16263018 0,10.6066074 L0,55.7714589 C0,57.2301753 1.19712056,58.4126984 2.68662392,58.4126984 L37.313376,58.4126984 C38.7971576,58.4126984 40,57.2154362 40,55.7714589 L40,10.6066074 C40,9.14789115 38.8028795,7.96536797 37.313376,7.96536797 L32,7.96536797 L32,7.95148478 C32,6.49276849 30.8028795,5.31024531 29.313376,5.31024531 L26.5333091,5.31024531 C25.9156155,2.28043132 23.2252773,0 20,0 C16.7747228,0 14.0843846,2.28043132 13.4666908,5.31024531 L13.4666908,5.31024531 L13.4666908,5.31024531 Z M32,10.6066075 L37.3133749,10.6066075 L37.3133749,55.7714567 L2.68662389,55.7714567 L2.68662389,10.6066075 L8,10.6066075 L8,13.2894965 C8,14.7482127 9.19712056,15.9307359 10.6866239,15.9307359 L29.313376,15.9307359 C30.7971576,15.9307359 32,14.7334737 32,13.2894965 L32,10.6066075 L32,10.6066075 Z" id="Shape-Copy" stroke="#FFFFFF" stroke-width="1"></path>
        </g>
    </g>
</svg>