<?xml version="1.0" encoding="UTF-8" standalone="no"?>
<svg width="65px" height="54px" viewBox="0 0 65 54" version="1.1" xmlns="http://www.w3.org/2000/svg" xmlns:xlink="http://www.w3.org/1999/xlink">
    <!-- Generator: Sketch 39.1 (31720) - http://www.bohemiancoding.com/sketch -->
    <title>Slice 1</title>
    <desc>Created with Sketch.</desc>
    <defs></defs>
    <g id="Page-1" stroke="none" stroke-width="1" fill="none" fill-rule="evenodd">
        <path d="M32.4996264,0 C27.3477751,0 23.097778,4.19711477 23.097778,9.33372604 C23.097778,11.4009171 23.8516892,13.300821 25.0240249,14.8668975 C22.9087398,15.994592 21.087099,17.6024902 19.7466463,19.5023941 C19.7048038,19.4814832 19.6629614,19.4396615 19.6211189,19.4187506 C20.4796363,18.1446798 21.0452565,16.641336 21.0452565,15.0132737 C21.0452565,10.6279609 17.4221489,7.05742608 13.0040348,7.05742608 C8.58517352,7.05742608 4.92097065,10.6279609 4.92097065,15.0132737 C4.92097065,16.6420828 5.5075121,18.1454266 6.36602945,19.4187506 C2.57629924,21.5695852 0,25.4739475 0,30.0048897 L0.0418424471,38.2736539 C0.0418424471,40.6754192 1.21417815,42.8464179 2.99472371,44.6216032 C4.77452209,46.3960418 7.20362558,47.8784747 10.1139172,49.1107237 C15.9569161,51.5543108 23.8300208,53.0374905 32.4996264,53.0374905 C41.1684848,53.0374905 49.0206683,51.5550576 54.8644144,49.1114705 C57.7963744,47.8799683 60.2247307,46.3967886 62.0052763,44.6223501 C63.7843275,42.8471647 64.9574104,40.676166 64.9574104,38.2744007 L65,30.0056365 C65,25.4746943 62.4020323,21.570332 58.6123021,19.4194974 C59.4924879,18.1454266 60.0573609,16.6420828 60.0573609,15.0140205 C60.0573609,10.6287077 56.4350005,7.05817289 52.0161392,7.05817289 C47.5987723,7.05817289 43.9330751,10.6287077 43.9330751,15.0140205 C43.9330751,16.6428296 44.4994425,18.1461734 45.3796282,19.4194974 C45.3370386,19.4404083 45.2951962,19.4822301 45.2526065,19.503141 C43.892727,17.603237 42.0920074,15.9953388 39.9767223,14.8676443 C41.1483108,13.3015678 41.8813008,11.4016639 41.8813008,9.33447286 C41.8805536,4.19711477 37.6716517,0 32.4996264,0 L32.4996264,0 L32.4996264,0 Z M32.4996264,3.52871304 C35.7454048,3.52871304 38.3411309,6.11792957 38.3411309,9.33372604 C38.3411309,11.2545408 37.3996758,12.9669935 35.9127746,14.0110445 C35.3889968,14.3866937 35.0953525,15.0760064 35.2007058,15.7025863 C35.2836435,16.3500772 35.7655788,16.9139244 36.3722943,17.1222865 C39.9333854,18.2918028 42.6770545,20.9855738 43.7858793,24.3679106 C40.2673778,23.8040634 36.4776476,23.5120577 32.4996264,23.5120577 C28.5417792,23.5120577 24.7311278,23.8048102 21.2126263,24.3679106 C22.3221983,20.9855738 25.0658674,18.2918028 28.6045429,17.1222865 C29.2329268,16.9139244 29.6939409,16.3500772 29.798547,15.7234972 C29.9031531,15.0760064 29.610256,14.3866937 29.0864782,14.0110445 C27.6204982,12.9669935 26.6573747,11.2552877 26.6573747,9.33372604 C26.6573747,6.11867639 29.253848,3.52871304 32.4996264,3.52871304 L32.4996264,3.52871304 L32.4996264,3.52871304 Z M13.0040348,10.5868859 C15.5377444,10.5868859 17.5058338,12.5704334 17.5058338,15.0140205 C17.5058338,16.4755425 16.7728438,17.7697774 15.6423505,18.5845553 C15.0976515,18.9602046 14.8047544,19.6495172 14.9093605,20.2760971 C15.0139666,20.923588 15.495902,21.5075993 16.1235387,21.6957973 C16.8146862,21.9250703 17.4849126,22.2387337 18.0707068,22.5934721 C17.7770625,23.4075032 17.5469291,24.2424453 17.3795593,25.1199559 C14.7195751,25.725625 12.2702976,26.5194921 10.11317,27.4171668 C7.49577552,28.5232036 5.25496304,29.8390962 3.53792834,31.3850086 L3.53792834,30.0063833 C3.53792834,26.1856646 6.13440162,22.9280463 9.86136816,21.6965442 C10.489752,21.5083461 10.9709402,20.923588 11.0755463,20.276844 C11.1801524,19.650264 10.8872553,18.9609514 10.3433035,18.5853022 C9.21206304,17.7705242 8.47907303,16.4762893 8.47907303,15.0147673 C8.4805674,12.5704334 10.4703252,10.5868859 13.0040348,10.5868859 L13.0040348,10.5868859 L13.0040348,10.5868859 Z M52.015392,10.5868859 C54.5281804,10.5868859 56.517191,12.5704334 56.517191,15.0140205 C56.517191,16.4755425 55.7849482,17.7697774 54.6537078,18.5845553 C54.1090088,18.9602046 53.8161116,19.6495172 53.9214649,20.2760971 C54.0044027,20.923588 54.5080064,21.5075993 55.1356431,21.6957973 C58.8424356,22.9272995 61.4605773,26.1849178 61.4605773,30.0056365 L61.4605773,31.4051726 C59.7427954,29.8600071 57.5027301,28.5232036 54.8644144,27.41642 C52.7072868,26.5187452 50.2998517,25.7457891 47.6391204,25.1408668 C47.493419,24.264103 47.2423643,23.4075032 46.9270516,22.5934721 C47.5352615,22.2379869 48.1628982,21.9250703 48.874967,21.6957973 C49.4824296,21.5075993 49.9837918,20.9228412 50.0891451,20.2760971 C50.1735772,19.6495172 49.8806801,18.9602046 49.3569023,18.5845553 C48.2054878,17.7697774 47.4717506,16.4755425 47.4717506,15.0140205 C47.4710034,12.5704334 49.4824296,10.5868859 52.015392,10.5868859 L52.015392,10.5868859 L52.015392,10.5868859 Z M32.4996264,27.1453252 C40.8120768,27.1453252 48.3085995,28.5859363 53.5859782,30.7995036 C56.2242939,31.9062872 58.2984838,33.221433 59.6381893,34.5373255 C60.9577207,35.8532181 61.5016725,37.1056312 61.5016725,38.2751475 C61.5016725,39.4446638 60.9569735,40.6560019 59.6381893,41.9920586 C58.2984838,43.3079511 56.2250411,44.6230969 53.5859782,45.7298805 C48.3085995,47.9636119 40.8120768,49.404223 32.4996264,49.404223 C24.20735,49.404223 16.6899061,47.9636119 11.4125274,45.7291337 C8.77421172,44.6230969 6.6798478,43.3072043 5.36031635,41.9913117 C4.02061085,40.6552551 3.49683308,39.443917 3.49683308,38.2744007 C3.49683308,37.1048844 4.02061085,35.8524713 5.36031635,34.5365787 C6.6798478,33.2206862 8.77346453,31.9062872 11.4125274,30.7987568 C16.6899061,28.5859363 24.20735,27.1453252 32.4996264,27.1453252 L32.4996264,27.1453252 L32.4996264,27.1453252 Z" id="Shape-Copy-7" fill="#FFFFFF"></path>
    </g>
</svg>