<?xml version="1.0" encoding="UTF-8" standalone="no"?>
<svg width="71px" height="50px" viewBox="0 0 71 50" version="1.1" xmlns="http://www.w3.org/2000/svg" xmlns:xlink="http://www.w3.org/1999/xlink">
    <!-- Generator: Sketch 39.1 (31720) - http://www.bohemiancoding.com/sketch -->
    <title>Shape</title>
    <desc>Created with Sketch.</desc>
    <defs></defs>
    <g id="Page-1" stroke="none" stroke-width="1" fill="none" fill-rule="evenodd">
        <g id="Desktop-HD" transform="translate(-249.000000, -1576.000000)" stroke-width="1.5" stroke="#FFFFFF" fill="#005195">
            <g id="Shape" transform="translate(250.000000, 1577.000000)">
                <path d="M66.0499168,10.4625624 L39.7737105,10.4625624 C38.4958403,10.4625624 37.4575707,9.42429285 37.4575707,8.14642263 L37.4575707,8.14642263 L37.4575707,8.14642263 C37.4575707,3.67387687 33.7836938,0 29.3111481,0 L2.95507488,0 C1.3577371,0 -2.84217094e-14,1.27787022 -2.84217094e-14,2.95507488 L-2.84217094e-14,34.5024958 C-2.84217094e-14,36.0998336 1.27787022,37.4575707 2.95507488,37.4575707 L5.27121464,37.4575707 L5.27121464,45.0449251 C5.27121464,46.2429285 5.99001664,47.281198 7.10815308,47.7603993 C7.50748752,47.9201331 7.82695507,48 8.22628952,48 C9.0249584,48 9.7437604,47.6805324 10.3028286,47.1214642 L19.9667221,37.4575707 L29.3111481,37.4575707 C30.5890183,37.4575707 31.6272879,38.4958403 31.6272879,39.7737105 C31.6272879,44.2462562 35.3011647,47.9201331 39.7737105,47.9201331 L66.0499168,47.9201331 C67.6472546,47.9201331 69.0049917,46.6422629 69.0049917,44.9650582 L69.0049917,13.3377704 C69.0049917,11.7404326 67.6472546,10.4625624 66.0499168,10.4625624 L66.0499168,10.4625624 Z M29.2312812,31.4675541 L18.6888519,31.4675541 C17.890183,31.4675541 17.171381,31.7870216 16.6123128,32.3460899 L11.1014975,37.8569052 L11.1014975,34.422629 C11.1014975,32.8252912 9.82362729,31.4675541 8.14642263,31.4675541 L5.83028286,31.4675541 L5.83028286,5.75041597 L29.2312812,5.75041597 C30.5091514,5.75041597 31.547421,6.78868552 31.547421,8.06655574 L31.547421,8.06655574 L31.547421,31.7870216 C30.828619,31.6272879 30.0299501,31.4675541 29.2312812,31.4675541 L29.2312812,31.4675541 Z M63.0948419,42.0099834 L39.7737105,42.0099834 C38.4958403,42.0099834 37.4575707,40.9717138 37.4575707,39.6938436 L37.4575707,39.6938436 L37.4575707,15.9733777 C38.1763727,16.2129784 38.9750416,16.2928453 39.7737105,16.2928453 L63.1747088,16.2928453 L63.1747088,42.0099834 L63.0948419,42.0099834 Z"></path>
            </g>
        </g>
    </g>
</svg>