<?xml version="1.0" encoding="UTF-8" standalone="no"?>
<svg width="32px" height="32px" viewBox="0 0 32 32" version="1.1" xmlns="http://www.w3.org/2000/svg" xmlns:xlink="http://www.w3.org/1999/xlink">
    <!-- Generator: Sketch 39.1 (31720) - http://www.bohemiancoding.com/sketch -->
    <title>Group Copy 4</title>
    <desc>Created with Sketch.</desc>
    <defs></defs>
    <g id="Page-1" stroke="none" stroke-width="1" fill="none" fill-rule="evenodd">
        <g id="Desktop-HD" transform="translate(-757.000000, -2302.000000)" fill="#005195">
            <g id="Group-Copy-4" transform="translate(757.000000, 2302.000000)">
                <path d="M29.334,3 L25,3 L25,1 C25,0.447 24.553,0 24,0 C23.447,0 23,0.447 23,1 L23,3 L17,3 L17,1 C17,0.447 16.552,0 16,0 C15.448,0 15,0.447 15,1 L15,3 L9,3 L9,1 C9,0.447 8.552,0 8,0 C7.448,0 7,0.447 7,1 L7,3 L2.667,3 C1.194,3 0,4.193 0,5.666 L0,29.333 C0,30.806 1.194,32 2.667,32 L29.334,32 C30.807,32 32,30.806 32,29.333 L32,5.666 C32,4.193 30.807,3 29.334,3 L29.334,3 Z M30,29.333 C30,29.701 29.701,30 29.334,30 L2.667,30 C2.299,30 2,29.701 2,29.333 L2,5.666 C2,5.299 2.299,5 2.667,5 L7,5 L7,7 C7,7.553 7.448,8 8,8 C8.552,8 9,7.553 9,7 L9,5 L15,5 L15,7 C15,7.553 15.448,8 16,8 C16.552,8 17,7.553 17,7 L17,5 L23,5 L23,7 C23,7.553 23.447,8 24,8 C24.553,8 25,7.553 25,7 L25,5 L29.334,5 C29.701,5 30,5.299 30,5.666 L30,29.333 L30,29.333 Z" id="Shape"></path>
                <rect id="Rectangle-path" x="7" y="12" width="4" height="3"></rect>
                <rect id="Rectangle-path" x="7" y="17" width="4" height="3"></rect>
                <rect id="Rectangle-path" x="7" y="22" width="4" height="3"></rect>
                <rect id="Rectangle-path" x="14" y="22" width="4" height="3"></rect>
                <rect id="Rectangle-path" x="14" y="17" width="4" height="3"></rect>
                <rect id="Rectangle-path" x="14" y="12" width="4" height="3"></rect>
                <rect id="Rectangle-path" x="21" y="22" width="4" height="3"></rect>
                <rect id="Rectangle-path" x="21" y="17" width="4" height="3"></rect>
                <rect id="Rectangle-path" x="21" y="12" width="4" height="3"></rect>
            </g>
        </g>
    </g>
</svg>