<?xml version="1.0" encoding="UTF-8" standalone="no"?>
<svg width="23px" height="33px" viewBox="0 0 23 33" version="1.1" xmlns="http://www.w3.org/2000/svg" xmlns:xlink="http://www.w3.org/1999/xlink">
    <!-- Generator: Sketch 39.1 (31720) - http://www.bohemiancoding.com/sketch -->
    <title>Shape Copy 9</title>
    <desc>Created with Sketch.</desc>
    <defs></defs>
    <g id="Page-1" stroke="none" stroke-width="1" fill="none" fill-rule="evenodd">
        <g id="Desktop-HD" transform="translate(-579.000000, -1799.000000)" stroke-width="0.5" stroke="#005195" fill="#005195">
            <g id="Group-2" transform="translate(580.000000, 1800.000000)">
                <g id="Shape-Copy-9">
                    <path d="M8.71666309,4.27032187 L5.74205597,4.27032187 L5.74205597,7.13708443 L15.750441,7.13708443 L15.750441,4.27032187 L12.7758345,4.27032187 C12.8533575,4.04943234 12.8954986,3.81202113 12.8954986,3.56481481 C12.8954986,2.38353911 11.9332467,1.42592593 10.7462488,1.42592593 C9.55925096,1.42592593 8.59699905,2.38353911 8.59699905,3.56481481 C8.59699905,3.81202113 8.63914011,4.04943234 8.71666309,4.27032187 L8.71666309,4.27032187 Z M7.23582052,2.85185185 L5.74205598,2.85185185 C4.94480177,2.85185185 4.29849953,3.49483806 4.29849953,4.27032185 L4.29849953,4.27777778 L1.44355646,4.27777778 C0.646302243,4.27777778 0,4.92076398 0,5.69624778 L0,29.9519003 C0,30.7352998 0.64322777,31.3703704 1.44355646,31.3703704 L20.0489411,31.3703704 C20.8461955,31.3703704 21.4924976,30.7273842 21.4924976,29.9519003 L21.4924976,5.69624778 C21.4924976,4.91284842 20.8492699,4.27777778 20.0489411,4.27777778 L17.1939981,4.27777778 L17.1939981,4.27032185 C17.1939981,3.4869225 16.5507704,2.85185185 15.7504416,2.85185185 L14.2566771,2.85185185 C13.9247826,1.22469903 12.4792305,0 10.7462488,0 C9.01326724,0 7.56771506,1.22469903 7.23582052,2.85185185 L7.23582052,2.85185185 L7.23582052,2.85185185 Z M17.1939981,5.69624779 L20.0489406,5.69624779 L20.0489406,29.9518992 L1.44355644,29.9518992 L1.44355644,5.69624779 L4.29849953,5.69624779 L4.29849953,7.13708555 C4.29849953,7.92048491 4.9417273,8.55555556 5.74205598,8.55555556 L15.7504416,8.55555556 C16.5476959,8.55555556 17.1939981,7.91256935 17.1939981,7.13708555 L17.1939981,5.69624779 L17.1939981,5.69624779 Z"></path>
                </g>
            </g>
        </g>
    </g>
</svg>