<?xml version="1.0" encoding="UTF-8" standalone="no"?>
<svg width="42px" height="60px" viewBox="0 0 42 60" version="1.1" xmlns="http://www.w3.org/2000/svg" xmlns:xlink="http://www.w3.org/1999/xlink">
    <!-- Generator: Sketch 39.1 (31720) - http://www.bohemiancoding.com/sketch -->
    <title>Slice 1</title>
    <desc>Created with Sketch.</desc>
    <defs></defs>
    <g id="Page-1" stroke="none" stroke-width="1" fill="none" fill-rule="evenodd">
        <path d="M17.2227085,8.95148481 L11.6866239,8.95148481 L11.6866239,14.2894944 L30.3133749,14.2894944 L30.3133749,8.95148481 L24.7772915,8.95148481 C24.9215707,8.54018098 25,8.09811322 25,7.63780664 C25,5.43823102 23.2091389,3.65512266 21,3.65512266 C18.790861,3.65512266 17,5.43823102 17,7.63780664 C17,8.09811322 17.0784293,8.54018098 17.2227085,8.95148481 L17.2227085,8.95148481 Z M14.4666908,6.31024531 L11.6866239,6.31024531 C10.2028425,6.31024531 9,7.50750753 9,8.95148478 L9,8.96536797 L3.68662392,8.96536797 C2.20284251,8.96536797 1,10.1626302 1,11.6066074 L1,56.7714589 C1,58.2301753 2.19712056,59.4126984 3.68662392,59.4126984 L38.313376,59.4126984 C39.7971576,59.4126984 41,58.2154362 41,56.7714589 L41,11.6066074 C41,10.1478911 39.8028795,8.96536797 38.313376,8.96536797 L33,8.96536797 L33,8.95148478 C33,7.49276849 31.8028795,6.31024531 30.313376,6.31024531 L27.5333091,6.31024531 C26.9156155,3.28043132 24.2252773,1 21,1 C17.7747228,1 15.0843846,3.28043132 14.4666908,6.31024531 L14.4666908,6.31024531 L14.4666908,6.31024531 Z M33,11.6066075 L38.3133749,11.6066075 L38.3133749,56.7714567 L3.68662389,56.7714567 L3.68662389,11.6066075 L9,11.6066075 L9,14.2894965 C9,15.7482127 10.1971206,16.9307359 11.6866239,16.9307359 L30.313376,16.9307359 C31.7971576,16.9307359 33,15.7334737 33,14.2894965 L33,11.6066075 L33,11.6066075 Z" id="Shape-Copy" stroke="#FFFFFF" fill="#FFFFFF"></path>
    </g>
</svg>