<?xml version="1.0" encoding="UTF-8" standalone="no"?>
<svg width="44px" height="43px" viewBox="0 0 44 43" version="1.1" xmlns="http://www.w3.org/2000/svg" xmlns:xlink="http://www.w3.org/1999/xlink">
    <!-- Generator: Sketch 39.1 (31720) - http://www.bohemiancoding.com/sketch -->
    <title>Slice 1</title>
    <desc>Created with Sketch.</desc>
    <defs></defs>
    <g id="Page-1" stroke="none" stroke-width="1" fill="none" fill-rule="evenodd">
        <path d="M43.0402862,37.810408 L29.3136871,24.3648965 C30.9196406,21.8286986 31.7674815,18.900626 31.7674815,15.8846563 C31.7674815,7.12699089 24.6414062,0 15.8837407,0 C7.12607529,-6.09908739e-16 0,7.12607529 0,15.8846563 C0,24.6423218 7.12607529,31.7665659 15.8837407,31.7665659 C19.2293246,31.7665659 22.43116,30.7291968 25.1559705,28.7624989 L38.8056597,42.1347628 C39.3742441,42.6923601 40.1250319,43 40.9234307,43 C41.7438038,43 42.5129035,42.6758794 43.0869815,42.0898986 C44.2534495,40.8977941 44.2333064,38.9787071 43.0402862,37.810408 L43.0402862,37.810408 Z M15.8837407,27.3762882 C9.54782387,27.3762882 4.39302444,22.2205732 4.39302444,15.8846563 C4.39302444,9.54873946 9.54782387,4.39394004 15.8837407,4.39394004 C22.2196576,4.39394004 27.3735414,9.54873946 27.3735414,15.8846563 C27.3735414,18.8685802 26.2363725,21.6959373 24.1689592,23.8466698 C21.9806873,26.1228388 19.0379652,27.3762882 15.8837407,27.3762882 L15.8837407,27.3762882 Z" id="Shape" fill="#FFFFFF"></path>
    </g>
</svg>