<?xml version="1.0" encoding="UTF-8" standalone="no"?>
<svg width="36px" height="29px" viewBox="0 0 36 29" version="1.1" xmlns="http://www.w3.org/2000/svg" xmlns:xlink="http://www.w3.org/1999/xlink">
    <!-- Generator: Sketch 39.1 (31720) - http://www.bohemiancoding.com/sketch -->
    <title>mesa</title>
    <desc>Created with Sketch.</desc>
    <defs></defs>
    <g id="Page-1" stroke="none" stroke-width="1" fill="none" fill-rule="evenodd">
        <g id="Desktop-HD" transform="translate(-284.000000, -1801.000000)" fill="#005195">
            <g id="mesa" transform="translate(284.000000, 1801.000000)">
                <path d="M17.7293478,0 C14.9188859,0 12.6004076,2.28962963 12.6004076,5.09177778 C12.6004076,6.21948148 13.0116848,7.25592593 13.6512228,8.11025926 C12.4972826,8.72544444 11.5035326,9.60259259 10.7722826,10.639037 C10.7494565,10.6276296 10.7266304,10.6048148 10.7038043,10.5934074 C11.1721467,9.89837037 11.4807065,9.07825926 11.4807065,8.19011111 C11.4807065,5.79781481 9.50421196,3.85 7.09402174,3.85 C4.68342391,3.85 2.68451087,5.79781481 2.68451087,8.19011111 C2.68451087,9.07866667 3.0044837,9.89877778 3.47282609,10.5934074 C1.40543478,11.7667407 0,13.8966667 0,16.3684074 L0.022826087,20.8792222 C0.022826087,22.1894444 0.66236413,23.3737778 1.63369565,24.3421852 C2.60461957,25.3101852 3.92975543,26.1188889 5.5173913,26.7911111 C8.7048913,28.1241481 12.9998641,28.9332593 17.7293478,28.9332593 C22.4584239,28.9332593 26.7419837,28.1245556 29.9298913,26.7915185 C31.5293478,26.1197037 32.8540761,25.3105926 33.8254076,24.3425926 C34.7959239,23.3741852 35.4358696,22.1898519 35.4358696,20.8796296 L35.4591033,16.3688148 C35.4591033,13.8970741 34.0418478,11.7671481 31.9744565,10.5938148 C32.4546196,9.89877778 32.7627717,9.07866667 32.7627717,8.19051852 C32.7627717,5.79822222 30.7866848,3.85040741 28.376087,3.85040741 C25.9663043,3.85040741 23.9665761,5.79822222 23.9665761,8.19051852 C23.9665761,9.07907407 24.2755435,9.89918519 24.7557065,10.5938148 C24.7324728,10.6052222 24.7096467,10.628037 24.686413,10.6394444 C23.9445652,9.603 22.9622283,8.72585185 21.808288,8.11066667 C22.4474185,7.25633333 22.8472826,6.21988889 22.8472826,5.09218519 C22.846875,2.28962963 20.5508152,0 17.7293478,0 L17.7293478,0 L17.7293478,0 Z M17.7293478,1.925 C19.5,1.925 20.9160326,3.33748148 20.9160326,5.09177778 C20.9160326,6.13962963 20.4024457,7.07381481 19.5913043,7.64337037 C19.3055707,7.8482963 19.1453804,8.22433333 19.2028533,8.56614815 C19.2480978,8.91937037 19.5110054,9.22696296 19.8419837,9.34062963 C21.7846467,9.97862963 23.2813859,11.4481481 23.8862772,13.2932963 C21.9668478,12.9857037 19.8994565,12.8264074 17.7293478,12.8264074 C15.5702446,12.8264074 13.4914402,12.9861111 11.5720109,13.2932963 C12.1773098,11.4481481 13.6740489,9.97862963 15.6044837,9.34062963 C15.9472826,9.22696296 16.1987772,8.91937037 16.2558424,8.57755556 C16.3129076,8.22433333 16.153125,7.8482963 15.8673913,7.64337037 C15.067663,7.07381481 14.5422554,6.14003704 14.5422554,5.09177778 C14.5422554,3.33788889 15.9586957,1.925 17.7293478,1.925 L17.7293478,1.925 L17.7293478,1.925 Z M7.09402174,5.77540741 C8.47622283,5.77540741 9.54986413,6.85748148 9.54986413,8.19051852 C9.54986413,8.98781481 9.15,9.69385185 8.53328804,10.1383333 C8.2361413,10.3432593 8.0763587,10.7192963 8.13342391,11.0611111 C8.19048913,11.4143333 8.45339674,11.7329259 8.79578804,11.8355926 C9.17282609,11.9606667 9.53845109,12.1317778 9.8580163,12.3252963 C9.69782609,12.7693704 9.57228261,13.2248519 9.48097826,13.7035556 C8.0298913,14.033963 6.69375,14.467037 5.5169837,14.9567407 C4.08913043,15.5601111 2.86671196,16.277963 1.93002717,17.1212963 L1.93002717,16.3692222 C1.93002717,14.2849259 3.34646739,12.5078148 5.37961957,11.836 C5.72241848,11.7333333 5.98491848,11.4143333 6.0419837,11.0615185 C6.09904891,10.7197037 5.9392663,10.3436667 5.64252717,10.1387407 C5.02540761,9.69425926 4.62554348,8.98822222 4.62554348,8.19092593 C4.6263587,6.85748148 5.71182065,5.77540741 7.09402174,5.77540741 L7.09402174,5.77540741 L7.09402174,5.77540741 Z M28.3756793,5.77540741 C29.7464674,5.77540741 30.8315217,6.85748148 30.8315217,8.19051852 C30.8315217,8.98781481 30.4320652,9.69385185 29.8149457,10.1383333 C29.5177989,10.3432593 29.3580163,10.7192963 29.4154891,11.0611111 C29.4607337,11.4143333 29.735462,11.7329259 30.0778533,11.8355926 C32.1,12.5074074 33.5282609,14.2845185 33.5282609,16.3688148 L33.5282609,17.1322963 C32.5911685,16.2893704 31.3691576,15.5601111 29.9298913,14.9563333 C28.753125,14.4666296 27.4398098,14.044963 25.9883152,13.714963 C25.9088315,13.2366667 25.771875,12.7693704 25.5998641,12.3252963 C25.9316576,12.1313704 26.2740489,11.9606667 26.6625,11.8355926 C26.9938859,11.7329259 27.2673913,11.4139259 27.3248641,11.0611111 C27.3709239,10.7192963 27.2111413,10.3432593 26.9254076,10.1383333 C26.2972826,9.69385185 25.8970109,8.98781481 25.8970109,8.19051852 C25.8966033,6.85748148 26.9938859,5.77540741 28.3756793,5.77540741 L28.3756793,5.77540741 L28.3756793,5.77540741 Z M17.7293478,14.8084444 C22.2639946,14.8084444 26.3535326,15.5943333 29.2324728,16.8018889 C30.6717391,17.4056667 31.8032609,18.1231111 32.5341033,18.840963 C33.2539402,19.5588148 33.5506793,20.242037 33.5506793,20.880037 C33.5506793,21.518037 33.2535326,22.1788519 32.5341033,22.9077037 C31.8032609,23.6255556 30.6721467,24.343 29.2324728,24.9467778 C26.3535326,26.1653333 22.2639946,26.9512222 17.7293478,26.9512222 C13.2057065,26.9512222 9.10475543,26.1653333 6.22581522,24.9463704 C4.78654891,24.343 3.64402174,23.6251481 2.92418478,22.9072963 C2.19334239,22.1784444 1.9076087,21.5176296 1.9076087,20.8796296 C1.9076087,20.2416296 2.19334239,19.5584074 2.92418478,18.8405556 C3.64402174,18.1227037 4.7861413,17.4056667 6.22581522,16.8014815 C9.10475543,15.5943333 13.2057065,14.8084444 17.7293478,14.8084444 L17.7293478,14.8084444 L17.7293478,14.8084444 Z" id="Shape-Copy-7"></path>
            </g>
        </g>
    </g>
</svg>