<?xml version="1.0" encoding="UTF-8" standalone="no"?>
<svg width="30px" height="26px" viewBox="0 0 30 26" version="1.1" xmlns="http://www.w3.org/2000/svg" xmlns:xlink="http://www.w3.org/1999/xlink">
    <!-- Generator: Sketch 39.1 (31720) - http://www.bohemiancoding.com/sketch -->
    <title>Twitter Copy</title>
    <desc>Created with Sketch.</desc>
    <defs></defs>
    <g id="Page-1" stroke="none" stroke-width="1" fill="none" fill-rule="evenodd">
        <g id="Detalle" transform="translate(-1159.000000, -2460.000000)" fill="#005195">
            <g id="Facebook-Copy" transform="translate(1111.000000, 2457.000000)">
                <g id="Facebook">
                    <g id="Group-5">
                        <g id="Twitter-Copy" transform="translate(48.461538, 3.750000)">
                            <g id="Twitter">
                                <path d="M26.0307692,3.75 C27.3230769,3 28.2461538,1.875 28.6153846,0.375 C27.5076923,1.125 26.2153846,1.5 24.7384615,1.875 C23.6307692,0.75 21.9692308,0 20.3076923,0 C17.1692308,0 14.4,2.8125 14.4,6.1875 C14.4,6.75 14.4,7.125 14.5846154,7.5 C9.6,7.3125 4.98461538,4.875 2.03076923,1.125 C1.47692308,2.0625 1.29230769,3 1.29230769,4.3125 C1.29230769,6.375 2.4,8.25 4.06153846,9.375 C3.13846154,9.375 2.21538462,9 1.29230769,8.625 C1.29230769,11.625 3.32307692,14.0625 6.09230769,14.625 C5.53846154,14.8125 4.98461538,14.8125 4.43076923,14.8125 C4.06153846,14.8125 3.69230769,14.8125 3.32307692,14.625 C4.06153846,17.0625 6.27692308,18.9375 9.04615385,18.9375 C7.01538462,20.625 4.43076923,21.5625 1.47692308,21.5625 L0,21.5625 C2.76923077,23.25 5.90769231,24.375 9.23076923,24.375 C20.3076923,24.375 26.4,15 26.4,6.9375 L26.4,6.1875 C27.6923077,5.25 28.8,4.125 29.5384615,2.8125 C28.4307692,3.375 27.3230769,3.5625 26.0307692,3.75 Z" id="Shape"></path>
                            </g>
                        </g>
                    </g>
                </g>
            </g>
        </g>
    </g>
</svg>