<?xml version="1.0" encoding="UTF-8" standalone="no"?>
<svg width="26px" height="24px" viewBox="0 0 26 24" version="1.1" xmlns="http://www.w3.org/2000/svg" xmlns:xlink="http://www.w3.org/1999/xlink">
    <!-- Generator: Sketch 39.1 (31720) - http://www.bohemiancoding.com/sketch -->
    <title>Path</title>
    <desc>Created with Sketch.</desc>
    <defs></defs>
    <g id="Page-1" stroke="none" stroke-width="1" fill="none" fill-rule="evenodd" stroke-linecap="round" stroke-linejoin="round">
        <g id="Detalle" transform="translate(-249.000000, -562.000000)" stroke="#005195" stroke-width="2">
            <g id="Group-3" transform="translate(249.000000, 513.000000)">
                <path d="M19.0736812,56.1283687 C19.0736812,58.1561783 18.0802752,59.9640195 16.5113245,61.0662271 C15.9586439,61.462801 15.6487959,62.1905103 15.7599627,62.8519925 C15.8474771,63.5355505 16.3560063,64.1308056 16.9962013,64.3507741 C20.7537987,65.5854358 23.6488675,68.4292575 24.818879,72 C21.1062213,71.4047448 17.1073681,71.0964736 12.9098337,71.0964736 C8.73358658,71.0964736 4.71265768,71.4055333 1,72 C2.17079989,68.4292575 5.06586869,65.5854358 8.79981365,64.3507741 C9.46287271,64.1308056 9.94932626,63.5355505 10.0597047,62.8740682 C10.1700831,62.1905103 9.86102351,61.462801 9.30834289,61.0662271 C7.76146789,59.9640195 6.74519782,58.1569667 6.74519782,56.1283687 C6.74519782,52.7342317 9.48494839,50 12.9098337,50 C16.334719,50 19.0736812,52.7334432 19.0736812,56.1283687 Z" id="Path"></path>
            </g>
        </g>
    </g>
</svg>